<mxfile host="Electron" agent="Mozilla/5.0 (Windows NT 10.0; Win64; x64) AppleWebKit/537.36 (KHTML, like Gecko) draw.io/27.0.9 Chrome/134.0.6998.205 Electron/35.4.0 Safari/537.36" version="27.0.9">
  <diagram name="Страница — 1" id="NXayj0lxbqnLVFikcGzJ">
    <mxGraphModel dx="1028" dy="659" grid="1" gridSize="12" guides="1" tooltips="1" connect="1" arrows="1" fold="1" page="1" pageScale="1" pageWidth="827" pageHeight="1169" math="0" shadow="0">
      <root>
        <mxCell id="0" />
        <mxCell id="1" parent="0" />
        <mxCell id="aTqNYP3ACEKHmbK2jb6x-13" style="edgeStyle=orthogonalEdgeStyle;rounded=0;orthogonalLoop=1;jettySize=auto;html=1;exitX=0.5;exitY=1;exitDx=0;exitDy=0;entryX=0.5;entryY=0;entryDx=0;entryDy=0;fillColor=#e1d5e7;strokeColor=#9673a6;strokeWidth=3;" edge="1" parent="1" source="aTqNYP3ACEKHmbK2jb6x-2" target="aTqNYP3ACEKHmbK2jb6x-3">
          <mxGeometry relative="1" as="geometry" />
        </mxCell>
        <mxCell id="aTqNYP3ACEKHmbK2jb6x-2" value="&lt;span style=&quot;font-size:9.0pt;mso-bidi-font-size:&lt;br/&gt;11.0pt;line-height:115%;font-family:&amp;quot;Courier New&amp;quot;;mso-fareast-font-family:&amp;quot;MS Mincho&amp;quot;;&lt;br/&gt;mso-fareast-theme-font:minor-fareast;mso-bidi-font-family:&amp;quot;Times New Roman&amp;quot;;&lt;br/&gt;mso-bidi-theme-font:minor-bidi;mso-ansi-language:EN-US;mso-fareast-language:&lt;br/&gt;EN-US;mso-bidi-language:AR-SA&quot; lang=&quot;EN-US&quot;&gt;&lt;b&gt;Cloud / Mobile App&lt;/b&gt;&lt;/span&gt;&lt;div&gt;&lt;span style=&quot;font-size:9.0pt;mso-bidi-font-size:&lt;br/&gt;11.0pt;line-height:115%;font-family:&amp;quot;Courier New&amp;quot;;mso-fareast-font-family:&amp;quot;MS Mincho&amp;quot;;&lt;br/&gt;mso-fareast-theme-font:minor-fareast;mso-bidi-font-family:&amp;quot;Times New Roman&amp;quot;;&lt;br/&gt;mso-bidi-theme-font:minor-bidi;mso-ansi-language:EN-US;mso-fareast-language:&lt;br/&gt;EN-US;mso-bidi-language:AR-SA&quot; lang=&quot;EN-US&quot;&gt;&lt;span style=&quot;font-size: 9pt; line-height: 115%;&quot; lang=&quot;EN-US&quot;&gt;HTTPS (TLS 1.3) / MQTT over TLS&amp;nbsp;8883&amp;nbsp;&amp;nbsp;&lt;/span&gt;&lt;/span&gt;&lt;/div&gt;" style="rounded=0;whiteSpace=wrap;html=1;" vertex="1" parent="1">
          <mxGeometry x="264" y="108" width="300" height="60" as="geometry" />
        </mxCell>
        <mxCell id="aTqNYP3ACEKHmbK2jb6x-3" value="&lt;span style=&quot;font-size:9.0pt;mso-bidi-font-size:&lt;br/&gt;11.0pt;line-height:115%;font-family:&amp;quot;Courier New&amp;quot;;mso-fareast-font-family:&amp;quot;MS Mincho&amp;quot;;&lt;br/&gt;mso-fareast-theme-font:minor-fareast;mso-bidi-font-family:&amp;quot;Times New Roman&amp;quot;;&lt;br/&gt;mso-bidi-theme-font:minor-bidi;mso-ansi-language:EN-US;mso-fareast-language:&lt;br/&gt;EN-US;mso-bidi-language:AR-SA&quot; lang=&quot;EN-US&quot;&gt;&lt;b&gt;Home Router&lt;/b&gt;&lt;/span&gt;&lt;div&gt;&lt;span style=&quot;font-size:9.0pt;mso-bidi-font-size:&lt;br/&gt;11.0pt;line-height:115%;font-family:&amp;quot;Courier New&amp;quot;;mso-fareast-font-family:&amp;quot;MS Mincho&amp;quot;;&lt;br/&gt;mso-fareast-theme-font:minor-fareast;mso-bidi-font-family:&amp;quot;Times New Roman&amp;quot;;&lt;br/&gt;mso-bidi-theme-font:minor-bidi;mso-ansi-language:EN-US;mso-fareast-language:&lt;br/&gt;EN-US;mso-bidi-language:AR-SA&quot; lang=&quot;EN-US&quot;&gt;&lt;span style=&quot;font-size: 9pt; line-height: 115%;&quot; lang=&quot;EN-US&quot;&gt;Eth&amp;nbsp;192.168.10.1/24&amp;nbsp;&amp;nbsp; Wi‑Fi&amp;nbsp;SSID&amp;nbsp;HomeAP&amp;nbsp; &amp;nbsp;&lt;/span&gt;&lt;/span&gt;&lt;/div&gt;" style="rounded=0;whiteSpace=wrap;html=1;" vertex="1" parent="1">
          <mxGeometry x="264" y="240" width="300" height="60" as="geometry" />
        </mxCell>
        <mxCell id="aTqNYP3ACEKHmbK2jb6x-10" style="edgeStyle=orthogonalEdgeStyle;rounded=0;orthogonalLoop=1;jettySize=auto;html=1;exitX=0.25;exitY=1;exitDx=0;exitDy=0;fillColor=#d5e8d4;strokeColor=#82b366;strokeWidth=3;" edge="1" parent="1" source="aTqNYP3ACEKHmbK2jb6x-4" target="aTqNYP3ACEKHmbK2jb6x-5">
          <mxGeometry relative="1" as="geometry" />
        </mxCell>
        <mxCell id="aTqNYP3ACEKHmbK2jb6x-11" style="edgeStyle=orthogonalEdgeStyle;rounded=0;orthogonalLoop=1;jettySize=auto;html=1;exitX=0.5;exitY=1;exitDx=0;exitDy=0;entryX=0.5;entryY=0;entryDx=0;entryDy=0;fillColor=#d5e8d4;strokeColor=#82b366;strokeWidth=3;" edge="1" parent="1" source="aTqNYP3ACEKHmbK2jb6x-4" target="aTqNYP3ACEKHmbK2jb6x-8">
          <mxGeometry relative="1" as="geometry" />
        </mxCell>
        <mxCell id="aTqNYP3ACEKHmbK2jb6x-12" style="edgeStyle=orthogonalEdgeStyle;rounded=0;orthogonalLoop=1;jettySize=auto;html=1;exitX=0.5;exitY=1;exitDx=0;exitDy=0;entryX=0.5;entryY=0;entryDx=0;entryDy=0;fillColor=#d5e8d4;strokeColor=#82b366;strokeWidth=3;" edge="1" parent="1" source="aTqNYP3ACEKHmbK2jb6x-4" target="aTqNYP3ACEKHmbK2jb6x-6">
          <mxGeometry relative="1" as="geometry" />
        </mxCell>
        <mxCell id="aTqNYP3ACEKHmbK2jb6x-16" style="edgeStyle=orthogonalEdgeStyle;rounded=0;orthogonalLoop=1;jettySize=auto;html=1;exitX=0.75;exitY=1;exitDx=0;exitDy=0;entryX=0.5;entryY=0;entryDx=0;entryDy=0;fillColor=#fff2cc;strokeColor=#d6b656;strokeWidth=3;" edge="1" parent="1" source="aTqNYP3ACEKHmbK2jb6x-4" target="aTqNYP3ACEKHmbK2jb6x-7">
          <mxGeometry relative="1" as="geometry" />
        </mxCell>
        <mxCell id="aTqNYP3ACEKHmbK2jb6x-18" style="edgeStyle=orthogonalEdgeStyle;rounded=0;orthogonalLoop=1;jettySize=auto;html=1;exitX=0.5;exitY=1;exitDx=0;exitDy=0;entryX=0.5;entryY=0;entryDx=0;entryDy=0;fillColor=#d5e8d4;strokeColor=#82b366;strokeWidth=3;" edge="1" parent="1" source="aTqNYP3ACEKHmbK2jb6x-4" target="aTqNYP3ACEKHmbK2jb6x-9">
          <mxGeometry relative="1" as="geometry" />
        </mxCell>
        <mxCell id="aTqNYP3ACEKHmbK2jb6x-4" value="&lt;span style=&quot;font-size:9.0pt;mso-bidi-font-size:&lt;br/&gt;11.0pt;line-height:115%;font-family:&amp;quot;Courier New&amp;quot;;mso-fareast-font-family:&amp;quot;MS Mincho&amp;quot;;&lt;br/&gt;mso-fareast-theme-font:minor-fareast;mso-bidi-font-family:&amp;quot;Times New Roman&amp;quot;;&lt;br/&gt;mso-bidi-theme-font:minor-bidi;mso-ansi-language:EN-US;mso-fareast-language:&lt;br/&gt;EN-US;mso-bidi-language:AR-SA&quot; lang=&quot;EN-US&quot;&gt;&lt;b&gt;IoT&amp;nbsp;Gateway / Coordinator&amp;nbsp;(Raspberry&amp;nbsp;Pi&amp;nbsp;4)&lt;/b&gt;&lt;br&gt;&lt;/span&gt;&lt;div&gt;&lt;span style=&quot;font-size:9.0pt;mso-bidi-font-size:&lt;br/&gt;11.0pt;line-height:115%;font-family:&amp;quot;Courier New&amp;quot;;mso-fareast-font-family:&amp;quot;MS Mincho&amp;quot;;&lt;br/&gt;mso-fareast-theme-font:minor-fareast;mso-bidi-font-family:&amp;quot;Times New Roman&amp;quot;;&lt;br/&gt;mso-bidi-theme-font:minor-bidi;mso-ansi-language:EN-US;mso-fareast-language:&lt;br/&gt;EN-US;mso-bidi-language:AR-SA&quot; lang=&quot;EN-US&quot;&gt;&lt;span style=&quot;font-size: 9pt; background-color: transparent; color: light-dark(rgb(0, 0, 0), rgb(255, 255, 255));&quot;&gt;Eth0&amp;nbsp;→&amp;nbsp;Router │ Zigbee&amp;nbsp;USB │ Wi‑Fi AP (REST&amp;nbsp;API)&lt;/span&gt;&amp;nbsp;&lt;/span&gt;&lt;/div&gt;" style="rounded=0;whiteSpace=wrap;html=1;" vertex="1" parent="1">
          <mxGeometry x="130" y="370" width="570" height="60" as="geometry" />
        </mxCell>
        <mxCell id="aTqNYP3ACEKHmbK2jb6x-5" value="&lt;span style=&quot;font-size:9.0pt;mso-bidi-font-size:&lt;br/&gt;11.0pt;line-height:115%;font-family:&amp;quot;Courier New&amp;quot;;mso-fareast-font-family:&amp;quot;MS Mincho&amp;quot;;&lt;br/&gt;mso-fareast-theme-font:minor-fareast;mso-bidi-font-family:&amp;quot;Times New Roman&amp;quot;;&lt;br/&gt;mso-bidi-theme-font:minor-bidi;mso-ansi-language:EN-US;mso-fareast-language:&lt;br/&gt;EN-US;mso-bidi-language:AR-SA&quot; lang=&quot;EN-US&quot;&gt;(Mesh relay)&lt;br&gt;&lt;/span&gt;&lt;div&gt;&lt;span style=&quot;font-size:9.0pt;mso-bidi-font-size:&lt;br/&gt;11.0pt;line-height:115%;font-family:&amp;quot;Courier New&amp;quot;;mso-fareast-font-family:&amp;quot;MS Mincho&amp;quot;;&lt;br/&gt;mso-fareast-theme-font:minor-fareast;mso-bidi-font-family:&amp;quot;Times New Roman&amp;quot;;&lt;br/&gt;mso-bidi-theme-font:minor-bidi;mso-ansi-language:EN-US;mso-fareast-language:&lt;br/&gt;EN-US;mso-bidi-language:AR-SA&quot; lang=&quot;EN-US&quot;&gt;&lt;span style=&quot;font-size: 9pt; background-color: transparent; color: light-dark(rgb(0, 0, 0), rgb(255, 255, 255));&quot;&gt;Smart&amp;nbsp;Plug&amp;nbsp;(router)&lt;/span&gt;&amp;nbsp;&lt;/span&gt;&lt;/div&gt;" style="rounded=0;whiteSpace=wrap;html=1;" vertex="1" parent="1">
          <mxGeometry x="30" y="490" width="160" height="60" as="geometry" />
        </mxCell>
        <mxCell id="aTqNYP3ACEKHmbK2jb6x-6" value="&lt;span style=&quot;font-size:9.0pt;mso-bidi-font-size:&lt;br/&gt;11.0pt;line-height:115%;font-family:&amp;quot;Courier New&amp;quot;;mso-fareast-font-family:&amp;quot;MS Mincho&amp;quot;;&lt;br/&gt;mso-fareast-theme-font:minor-fareast;mso-bidi-font-family:&amp;quot;Times New Roman&amp;quot;;&lt;br/&gt;mso-bidi-theme-font:minor-bidi;mso-ansi-language:EN-US;mso-fareast-language:&lt;br/&gt;EN-US;mso-bidi-language:AR-SA&quot; lang=&quot;EN-US&quot;&gt;Door&amp;nbsp;Lock&lt;/span&gt;&lt;div&gt;&lt;span style=&quot;font-size:9.0pt;mso-bidi-font-size:&lt;br/&gt;11.0pt;line-height:115%;font-family:&amp;quot;Courier New&amp;quot;;mso-fareast-font-family:&amp;quot;MS Mincho&amp;quot;;&lt;br/&gt;mso-fareast-theme-font:minor-fareast;mso-bidi-font-family:&amp;quot;Times New Roman&amp;quot;;&lt;br/&gt;mso-bidi-theme-font:minor-bidi;mso-ansi-language:EN-US;mso-fareast-language:&lt;br/&gt;EN-US;mso-bidi-language:AR-SA&quot; lang=&quot;EN-US&quot;&gt;&amp;nbsp;(router)&lt;/span&gt;&lt;/div&gt;" style="rounded=0;whiteSpace=wrap;html=1;" vertex="1" parent="1">
          <mxGeometry x="294" y="570" width="120" height="60" as="geometry" />
        </mxCell>
        <mxCell id="aTqNYP3ACEKHmbK2jb6x-7" value="&lt;span style=&quot;font-size:9.0pt;mso-bidi-font-size:&lt;br/&gt;11.0pt;line-height:115%;font-family:&amp;quot;Courier New&amp;quot;;mso-fareast-font-family:&amp;quot;MS Mincho&amp;quot;;&lt;br/&gt;mso-fareast-theme-font:minor-fareast;mso-bidi-font-family:&amp;quot;Times New Roman&amp;quot;;&lt;br/&gt;mso-bidi-theme-font:minor-bidi;mso-ansi-language:EN-US;mso-fareast-language:&lt;br/&gt;EN-US;mso-bidi-language:AR-SA&quot; lang=&quot;EN-US&quot;&gt;Smart&amp;nbsp;Bulb (router)&lt;/span&gt;" style="rounded=0;whiteSpace=wrap;html=1;" vertex="1" parent="1">
          <mxGeometry x="580" y="490" width="120" height="60" as="geometry" />
        </mxCell>
        <mxCell id="aTqNYP3ACEKHmbK2jb6x-8" value="&lt;span style=&quot;font-size:9.0pt;mso-bidi-font-size:&lt;br/&gt;11.0pt;line-height:115%;font-family:&amp;quot;Courier New&amp;quot;;mso-fareast-font-family:&amp;quot;MS Mincho&amp;quot;;&lt;br/&gt;mso-fareast-theme-font:minor-fareast;mso-bidi-font-family:&amp;quot;Times New Roman&amp;quot;;&lt;br/&gt;mso-bidi-theme-font:minor-bidi;mso-ansi-language:EN-US;mso-fareast-language:&lt;br/&gt;EN-US;mso-bidi-language:AR-SA&quot; lang=&quot;EN-US&quot;&gt;Motion&amp;nbsp;Sensor (end)&lt;/span&gt;" style="rounded=0;whiteSpace=wrap;html=1;" vertex="1" parent="1">
          <mxGeometry x="150" y="570" width="120" height="60" as="geometry" />
        </mxCell>
        <mxCell id="aTqNYP3ACEKHmbK2jb6x-9" value="&lt;span style=&quot;font-size:9.0pt;mso-bidi-font-size:&lt;br/&gt;11.0pt;line-height:115%;font-family:&amp;quot;Courier New&amp;quot;;mso-fareast-font-family:&amp;quot;MS Mincho&amp;quot;;&lt;br/&gt;mso-fareast-theme-font:minor-fareast;mso-bidi-font-family:&amp;quot;Times New Roman&amp;quot;;&lt;br/&gt;mso-bidi-theme-font:minor-bidi;mso-ansi-language:EN-US;mso-fareast-language:&lt;br/&gt;EN-US;mso-bidi-language:AR-SA&quot; lang=&quot;EN-US&quot;&gt;Temp/&lt;/span&gt;&lt;div&gt;&lt;span style=&quot;font-size:9.0pt;mso-bidi-font-size:&lt;br/&gt;11.0pt;line-height:115%;font-family:&amp;quot;Courier New&amp;quot;;mso-fareast-font-family:&amp;quot;MS Mincho&amp;quot;;&lt;br/&gt;mso-fareast-theme-font:minor-fareast;mso-bidi-font-family:&amp;quot;Times New Roman&amp;quot;;&lt;br/&gt;mso-bidi-theme-font:minor-bidi;mso-ansi-language:EN-US;mso-fareast-language:&lt;br/&gt;EN-US;mso-bidi-language:AR-SA&quot; lang=&quot;EN-US&quot;&gt;Humidity&amp;nbsp;Sensor&lt;/span&gt;&lt;/div&gt;" style="rounded=0;whiteSpace=wrap;html=1;strokeWidth=1;" vertex="1" parent="1">
          <mxGeometry x="460" y="570" width="120" height="60" as="geometry" />
        </mxCell>
        <mxCell id="aTqNYP3ACEKHmbK2jb6x-22" value="" style="shape=flexArrow;endArrow=classic;startArrow=classic;html=1;rounded=0;entryX=0.5;entryY=1;entryDx=0;entryDy=0;exitX=0.5;exitY=0;exitDx=0;exitDy=0;fillColor=#B5739D;strokeColor=#6c8ebf;strokeWidth=3;" edge="1" parent="1" source="aTqNYP3ACEKHmbK2jb6x-4" target="aTqNYP3ACEKHmbK2jb6x-3">
          <mxGeometry width="100" height="100" relative="1" as="geometry">
            <mxPoint x="432" y="400" as="sourcePoint" />
            <mxPoint x="532" y="300" as="targetPoint" />
          </mxGeometry>
        </mxCell>
      </root>
    </mxGraphModel>
  </diagram>
</mxfile>
